# xmcd
#
# Track frame offsets: 
#        150
#        15365
#        29322
#        43536
#        63247
#        75261
#        90662
#        105714
#        119460
#        143673
#        154979
#        166600
#        182162
#        200993
#        215550
#        233699
#        250092
#        264521
#        276063
#        285881
#
# Disc length: 4050 seconds
#
# Revision: 0
# Processed by: cddbd v1.5.2PL0 Copyright (c) Steve Scherf et al.
# Submitted via: ExactAudioCopy v1.3
#
DISCID=060fd014
DTITLE=Various Artist - 101 Country And Irish Cd4
DYEAR=1900
DGENRE=Celtic
TTITLE0=The Davitt Country - The Cowboy Rides away
TTITLE1=Mick Flavin - I Love ireland 
TTITLE2=Paddy O'Brian - Fraulein
TTITLE3=Johnny McEvoy - Going To California
TTITLE4=Brendan quinn - Bonapartes Retreat
TTITLE5=Mick Foster - Oslo Waltz
TTITLE6=Philomena Begley - Sentimental Old You
TTITLE7=Barleycorn - Maggie 
TTITLE8=Chris Ball - The Blacksmith
TTITLE9=The Cotton Mill Boys - Top 40
TTITLE10=Big Tom and The Mainliners - The Sunset Years Of Life
TTITLE11=Patsy watchorn - Isle Of Innisfree
TTITLE12=The Big 8 - You Gave Me A Mountain
TTITLE13=Sonny Knoweles - Help Me Make It Through The Night
TTITLE14=Derek McCormack - Beautiful Meath
TTITLE15=Tony Kenny - Irish Wedding Song
TTITLE16=Johnny McEvoy - Jambalaya
TTITLE17=The Cotton Mill Boys - Make The World Go Away
TTITLE18=Kenny Paul - Going To Sanantone
TTITLE19=Brendan Bowyer - the Joyce Country Ceili Band
EXTD=
EXTT0=
EXTT1=
EXTT2=
EXTT3=
EXTT4=
EXTT5=
EXTT6=
EXTT7=
EXTT8=
EXTT9=
EXTT10=
EXTT11=
EXTT12=
EXTT13=
EXTT14=
EXTT15=
EXTT16=
EXTT17=
EXTT18=
EXTT19=
PLAYORDER=
